<?xml version="1.0" encoding="UTF-8"?> <svg xmlns="http://www.w3.org/2000/svg" id="Layer_1" data-name="Layer 1" viewBox="0 0 190.7 51.3"><defs><style>.cls-1{fill:#fff;}.cls-2{fill:#95c840;}.cls-3{fill:#59c9e6;}.cls-4{fill:#ebe719;}.cls-5{fill:#50c0af;}.cls-6{fill:#0377bb;}.cls-7{fill:#78bc43;}.cls-8{fill:#109fda;}</style></defs><path class="cls-1" d="M42.2,26.9V44.3H37.9V28.1a6.08,6.08,0,0,0-.8-3.4,3.17,3.17,0,0,0-2.6-1.1,6.69,6.69,0,0,0-2.9.8,12,12,0,0,0-3,2.3V44.4H24.4v-24h3.9v3.2a13.76,13.76,0,0,1,3.9-2.7,9.37,9.37,0,0,1,3.6-.8,6.1,6.1,0,0,1,4.7,1.8,6.86,6.86,0,0,1,1.7,5" transform="translate(-15.4 -7.3)"></path><path class="cls-1" d="M56.1,11.2v3.5a15.26,15.26,0,0,0-1.8-.1c-.4,0-.7-.1-.9-.1a2.54,2.54,0,0,0-2.1.7,3.52,3.52,0,0,0-.6,2.3v2.8H56v3.6H50.7V44.3H46.5V16.9a5.76,5.76,0,0,1,1.6-4.5,6.14,6.14,0,0,1,4.5-1.6,7.08,7.08,0,0,1,1.4.1,14.26,14.26,0,0,0,2.1.3" transform="translate(-15.4 -7.3)"></path><path class="cls-1" d="M66.9,19.9a9,9,0,0,1,7.3,3.2c1.7,2.1,2.6,5.1,2.6,9s-.9,6.9-2.6,9a9,9,0,0,1-7.3,3.2,9,9,0,0,1-7.3-3.2C57.9,39,57,36,57,32.1s.9-6.8,2.6-9a8.84,8.84,0,0,1,7.3-3.2m0,3.7a4.87,4.87,0,0,0-4.2,2.1A11.76,11.76,0,0,0,61.3,32a12.4,12.4,0,0,0,1.4,6.4,4.71,4.71,0,0,0,4.2,2.2A4.46,4.46,0,0,0,71,38.4c1-1.4,1.4-3.6,1.4-6.3A12.4,12.4,0,0,0,71,25.7a4.58,4.58,0,0,0-4.1-2.1" transform="translate(-15.4 -7.3)"></path><rect class="cls-1" x="88.9" y="3.7" width="4.2" height="33.4"></rect><rect class="cls-1" x="0.4" y="3.7" width="4.2" height="33.4"></rect><path class="cls-1" d="M84.9,44.4V41.8a7.64,7.64,0,0,0,2.3,1.7,7.84,7.84,0,0,0,3.5.8,8.19,8.19,0,0,0,6.9-3.2c1.7-2.2,2.5-5.2,2.5-9a14,14,0,0,0-2.6-8.8,8.18,8.18,0,0,0-6.9-3.2,8.33,8.33,0,0,0-3.2.7A6.55,6.55,0,0,0,84.9,23V11H80.7V44.4Zm9.4-5.9a4.73,4.73,0,0,1-4.2,2.2,5,5,0,0,1-2.7-.7A8.15,8.15,0,0,1,85,37.8V26.4a9,9,0,0,1,2.4-2.1,4.84,4.84,0,0,1,2.6-.7,5,5,0,0,1,4.4,2.2,11.79,11.79,0,0,1,1.5,6.5c-.2,2.7-.6,4.8-1.6,6.2" transform="translate(-15.4 -7.3)"></path><path class="cls-1" d="M122.5,19.9a9,9,0,0,1,7.3,3.2c1.7,2.1,2.6,5.1,2.6,9s-.9,6.9-2.6,9a9.93,9.93,0,0,1-14.6,0c-1.7-2.1-2.6-5.1-2.6-9s.9-6.8,2.6-9a9,9,0,0,1,7.3-3.2m0,3.7a4.87,4.87,0,0,0-4.2,2.1,11.76,11.76,0,0,0-1.4,6.3,12.4,12.4,0,0,0,1.4,6.4,4.71,4.71,0,0,0,4.2,2.2,4.46,4.46,0,0,0,4.1-2.2c1-1.4,1.4-3.6,1.4-6.3a12.4,12.4,0,0,0-1.4-6.4,4.58,4.58,0,0,0-4.1-2.1" transform="translate(-15.4 -7.3)"></path><polygon class="cls-1" points="118.4 12.7 123.3 12.7 127.7 20.7 132.2 12.7 136.8 12.7 130.1 24.2 137.7 36.9 132.8 36.9 127.6 27.4 122.4 36.9 117.8 36.9 125.3 24.2 118.4 12.7"></polygon><path class="cls-2" d="M167.2,28.1,160,22.7a.91.91,0,0,1-.3-.5.55.55,0,0,1,.3-.5l7.2-5.4a2,2,0,0,1,2.1,0l7.2,5.4a.91.91,0,0,1,.3.5.55.55,0,0,1-.3.5l-7.2,5.4a2,2,0,0,1-2.1,0" transform="translate(-15.4 -7.3)"></path><path class="cls-3" d="M167.2,45.5,160,40.1a.91.91,0,0,1-.3-.5.55.55,0,0,1,.3-.5l7.2-5.4a2,2,0,0,1,2.1,0l7.2,5.4a.91.91,0,0,1,.3.5.55.55,0,0,1-.3.5l-7.2,5.4a1.66,1.66,0,0,1-2.1,0" transform="translate(-15.4 -7.3)"></path><path class="cls-4" d="M178.8,19.5l-7.2-5.4a.86.86,0,0,1-.3-.6.55.55,0,0,1,.3-.5l7.2-5.4a2,2,0,0,1,2.1,0l7.2,5.4a.91.91,0,0,1,.3.5.86.86,0,0,1-.3.6l-7.2,5.4a2,2,0,0,1-2.1,0" transform="translate(-15.4 -7.3)"></path><path class="cls-5" d="M178.8,36.9l-7.2-5.4a.91.91,0,0,1-.3-.5.55.55,0,0,1,.3-.5l7.2-5.4a2,2,0,0,1,2.1,0l7.2,5.4a.91.91,0,0,1,.3.5.55.55,0,0,1-.3.5l-7.2,5.4a2,2,0,0,1-2.1,0" transform="translate(-15.4 -7.3)"></path><path class="cls-6" d="M178.8,54.6l-7.2-5.4a.86.86,0,0,1-.3-.6.55.55,0,0,1,.3-.5l7.2-5.4a2,2,0,0,1,2.1,0l7.2,5.4a.91.91,0,0,1,.3.5.86.86,0,0,1-.3.6l-7.2,5.4a2,2,0,0,1-2.1,0" transform="translate(-15.4 -7.3)"></path><path class="cls-7" d="M190.4,28.1l-7.2-5.4a.91.91,0,0,1-.3-.5.55.55,0,0,1,.3-.5l7.2-5.4a2,2,0,0,1,2.1,0l7.2,5.4a.91.91,0,0,1,.3.5.55.55,0,0,1-.3.5l-7.2,5.4a2,2,0,0,1-2.1,0" transform="translate(-15.4 -7.3)"></path><path class="cls-8" d="M190.4,45.5l-7.2-5.4a.91.91,0,0,1-.3-.5.55.55,0,0,1,.3-.5l7.2-5.4a2,2,0,0,1,2.1,0l7.2,5.4a.91.91,0,0,1,.3.5.55.55,0,0,1-.3.5l-7.2,5.4a1.66,1.66,0,0,1-2.1,0" transform="translate(-15.4 -7.3)"></path><path class="cls-1" d="M206.1,30.9A3.05,3.05,0,0,1,203,34a3.12,3.12,0,0,1-3.1-3.1,3.05,3.05,0,0,1,3.1-3.1,3.11,3.11,0,0,1,3.1,3.1m-5.7,0a2.52,2.52,0,0,0,2.6,2.6,2.58,2.58,0,0,0,2.6-2.6,2.52,2.52,0,0,0-2.6-2.6,2.65,2.65,0,0,0-2.6,2.6m2,1.8H202V29.1h1.4c.8,0,1.2.3,1.2,1a1,1,0,0,1-.9,1l1.1,1.6h-.5l-1-1.6h-.7v1.6Zm.6-1.9c.5,0,1.1,0,1.1-.6s-.4-.6-.8-.6h-.8v1.2Z" transform="translate(-15.4 -7.3)"></path><path class="cls-1" d="M20.9,58.4l-4.5-6.1v6.1h-1V50.8h1l4.4,6v-6h1v7.6Z" transform="translate(-15.4 -7.3)"></path><path class="cls-1" d="M23.6,58.4V50.8h5v.8H24.5v2.5h4V55h-4v2.6h4.1v.8Z" transform="translate(-15.4 -7.3)"></path><path class="cls-1" d="M35.4,58.4,33,55.2l-2.4,3.3H29.4l3-3.9-2.8-3.7h1.2L33.1,54l2.3-3.1h1.2l-2.8,3.7,3,3.9H35.4Z" transform="translate(-15.4 -7.3)"></path><path class="cls-1" d="M39.5,58.4V51.6H37.1v-.8h5.8v.8H40.5v6.8Z" transform="translate(-15.4 -7.3)"></path><path class="cls-1" d="M47.1,58.4V50.8h1v6.8h3.6v.8Z" transform="translate(-15.4 -7.3)"></path><path class="cls-1" d="M53,58.4V50.8h5v.8H53.9v2.5h4V55h-4v2.6H58v.8Z" transform="translate(-15.4 -7.3)"></path><path class="cls-1" d="M61.8,58.4l-3.1-7.6h1.1l2.6,6.6L65,50.8h1.1L63,58.4Z" transform="translate(-15.4 -7.3)"></path><path class="cls-1" d="M67,58.4V50.8h5v.8H68v2.5h4V55H68v2.6h4.1v.8Z" transform="translate(-15.4 -7.3)"></path><path class="cls-1" d="M73.6,58.4V50.8h1v6.8h3.6v.8Z" transform="translate(-15.4 -7.3)"></path><path class="cls-1" d="M87.8,58.4l-4.5-6.1v6.1h-1V50.8h1l4.4,6v-6h1v7.6Z" transform="translate(-15.4 -7.3)"></path><path class="cls-1" d="M90.5,58.4V50.8h5v.8H91.4v2.5h4V55h-4v2.6h4.1v.8Z" transform="translate(-15.4 -7.3)"></path><path class="cls-1" d="M98.9,58.4V51.6H96.5v-.8h5.8v.8H99.9v6.8Z" transform="translate(-15.4 -7.3)"></path><path class="cls-1" d="M109.4,58.4l-1.7-6.2L106,58.4h-1l-2.2-7.6h1.1l1.7,6.4,1.8-6.4h.8l1.8,6.4,1.7-6.4h1.1l-2.2,7.6Z" transform="translate(-15.4 -7.3)"></path><path class="cls-1" d="M113.2,54.6a3.65,3.65,0,0,1,3.8-3.9,3.7,3.7,0,0,1,3.8,3.9,3.65,3.65,0,0,1-3.8,3.9A3.6,3.6,0,0,1,113.2,54.6Zm6.6,0a2.81,2.81,0,1,0-5.6,0,2.81,2.81,0,1,0,5.6,0Z" transform="translate(-15.4 -7.3)"></path><path class="cls-1" d="M126.7,58.4l-2-3h-1.5v3h-1V50.8h3.1a2.23,2.23,0,0,1,2.4,2.3,2.06,2.06,0,0,1-2,2.2l2.1,3.1Zm0-5.3a1.42,1.42,0,0,0-1.5-1.5h-2v2.9h2A1.3,1.3,0,0,0,126.7,53.1Z" transform="translate(-15.4 -7.3)"></path><path class="cls-1" d="M133.8,58.4,130.9,55l-.8.9v2.6h-1V50.9h1v3.9l3.4-3.9h1.2l-3.2,3.6,3.5,4h-1.2Z" transform="translate(-15.4 -7.3)"></path><path class="cls-1" d="M136.1,58.4V50.8h1v7.6Z" transform="translate(-15.4 -7.3)"></path><path class="cls-1" d="M144.3,58.4l-4.5-6.1v6.1h-1V50.8h1l4.4,6v-6h1v7.6Z" transform="translate(-15.4 -7.3)"></path><path class="cls-1" d="M146.7,54.6a3.9,3.9,0,0,1,6.9-2.5l-.8.5a3,3,0,0,0-2.2-1.1,2.89,2.89,0,0,0-2.9,3.1,3,3,0,0,0,2.9,3.1,3.12,3.12,0,0,0,2.1-.8V55.3H150v-.8h3.6v2.8a4,4,0,0,1-3,1.3A3.81,3.81,0,0,1,146.7,54.6Z" transform="translate(-15.4 -7.3)"></path></svg> 