<?xml version="1.0" encoding="UTF-8" standalone="no" ?>
<!DOCTYPE svg PUBLIC "-//W3C//DTD SVG 1.1//EN" "http://www.w3.org/Graphics/SVG/1.1/DTD/svg11.dtd">
<svg xmlns="http://www.w3.org/2000/svg" xmlns:xlink="http://www.w3.org/1999/xlink" version="1.1" width="625" height="160" viewBox="0 0 625 160" xml:space="preserve">
<desc>Created with Fabric.js 3.6.3</desc>
<defs>
</defs>
<g transform="matrix(1 0 0 1 315 235)"  >
<g style=""   >
		<g transform="matrix(4.64 0 0 4.64 -248.9 -151.84)"  >
<path style="stroke: none; stroke-width: 1; stroke-dasharray: none; stroke-linecap: butt; stroke-dashoffset: 0; stroke-linejoin: miter; stroke-miterlimit: 4; fill: rgb(0,0,0); fill-rule: nonzero; opacity: 1;"  transform=" translate(-22.95, -31.5)" d="M 29.1 27.9 v 12 h -2.9 V 28.7 c 0 -1.1 -0.2 -1.9 -0.6 -2.4 c -0.4 -0.5 -1 -0.8 -1.8 -0.8 c -0.6 0 -1.3 0.2 -2 0.5 c -0.7 0.4 -1.4 0.9 -2.1 1.6 v 12.2 h -2.9 V 23.4 h 2.7 v 2.2 c 1 -0.9 1.9 -1.5 2.7 -1.9 c 0.8 -0.4 1.6 -0.6 2.5 -0.6 c 1.4 0 2.5 0.4 3.3 1.2 C 28.8 25.2 29.1 26.4 29.1 27.9" stroke-linecap="round" />
</g>
		<g transform="matrix(4.64 0 0 4.64 -191.13 -166)"  >
<path style="stroke: none; stroke-width: 1; stroke-dasharray: none; stroke-linecap: butt; stroke-dashoffset: 0; stroke-linejoin: miter; stroke-miterlimit: 4; fill: rgb(0,0,0); fill-rule: nonzero; opacity: 1;"  transform=" translate(-35.4, -28.45)" d="M 38.7 17.1 v 2.4 c -0.7 0 -1 -0.1 -1.2 -0.1 c -0.2 0 -0.5 0 -0.6 0 c -0.7 0 -1.2 0.2 -1.4 0.5 c -0.3 0.3 -0.4 0.8 -0.4 1.6 v 2 h 3.6 v 2.5 H 35 v 14.1 h -2.9 V 25.8 v -2.5 V 21 c 0 -1.4 0.4 -2.4 1.1 -3.1 c 0.7 -0.7 1.8 -1.1 3.1 -1.1 c 0.3 0 0.6 0 1 0.1 C 37.6 16.9 38 17 38.7 17.1" stroke-linecap="round" />
</g>
		<g transform="matrix(4.64 0 0 4.64 -141.49 -151.84)"  >
<path style="stroke: none; stroke-width: 1; stroke-dasharray: none; stroke-linecap: butt; stroke-dashoffset: 0; stroke-linejoin: miter; stroke-miterlimit: 4; fill: rgb(0,0,0); fill-rule: nonzero; opacity: 1;"  transform=" translate(-46.1, -31.5)" d="M 46.1 23.1 c 2.2 0 3.8 0.7 5 2.2 c 1.2 1.5 1.8 3.5 1.8 6.2 c 0 2.7 -0.6 4.7 -1.8 6.2 c -1.2 1.5 -2.9 2.2 -5 2.2 c -2.2 0 -3.8 -0.7 -5 -2.2 c -1.2 -1.5 -1.8 -3.5 -1.8 -6.2 c 0 -2.6 0.6 -4.7 1.8 -6.2 C 42.3 23.8 44 23.1 46.1 23.1 M 46.1 25.6 c -1.3 0 -2.2 0.5 -2.9 1.5 c -0.6 1 -1 2.4 -1 4.4 c 0 1.9 0.3 3.4 1 4.4 c 0.6 1 1.6 1.5 2.9 1.5 c 1.2 0 2.2 -0.5 2.9 -1.5 c 0.7 -1 1 -2.5 1 -4.4 c 0 -1.9 -0.3 -3.4 -1 -4.4 C 48.3 26.1 47.4 25.6 46.1 25.6" stroke-linecap="round" />
</g>
		<g transform="matrix(4.64 0 0 4.64 -15.05 -166.23)"  >
<rect style="stroke: none; stroke-width: 1; stroke-dasharray: none; stroke-linecap: butt; stroke-dashoffset: 0; stroke-linejoin: miter; stroke-miterlimit: 4; fill: rgb(0,0,0); fill-rule: nonzero; opacity: 1;"  x="-1.45" y="-11.5" rx="0" ry="0" width="2.9" height="23" />
</g>
		<g transform="matrix(4.64 0 0 4.64 -297.62 -166.23)"  >
<rect style="stroke: none; stroke-width: 1; stroke-dasharray: none; stroke-linecap: butt; stroke-dashoffset: 0; stroke-linejoin: miter; stroke-miterlimit: 4; fill: rgb(0,0,0); fill-rule: nonzero; opacity: 1;"  x="-1.45" y="-11.5" rx="0" ry="0" width="2.9" height="23" />
</g>
		<g transform="matrix(4.64 0 0 4.64 -66.09 -165.76)"  >
<path style="stroke: none; stroke-width: 1; stroke-dasharray: none; stroke-linecap: butt; stroke-dashoffset: 0; stroke-linejoin: miter; stroke-miterlimit: 4; fill: rgb(0,0,0); fill-rule: nonzero; opacity: 1;"  transform=" translate(-62.35, -28.5)" d="M 58.5 39.9 v -1.8 c 0.5 0.5 1 0.9 1.6 1.2 c 0.7 0.4 1.5 0.5 2.4 0.5 c 2 0 3.6 -0.7 4.8 -2.2 c 1.1 -1.5 1.7 -3.6 1.7 -6.2 c 0 -2.5 -0.6 -4.6 -1.8 -6 c -1.2 -1.5 -2.8 -2.2 -4.7 -2.2 c -0.8 0 -1.5 0.2 -2.2 0.5 c -0.7 0.3 -1.3 0.8 -1.7 1.5 v -8.2 h -2.9 v 23 H 58.5 z M 65 35.9 c -0.7 1 -1.6 1.5 -2.9 1.5 c -0.7 0 -1.3 -0.2 -1.9 -0.5 c -0.6 -0.3 -1.1 -0.8 -1.7 -1.5 v -7.9 c 0.5 -0.7 1.1 -1.1 1.6 -1.5 c 0.6 -0.3 1.2 -0.5 1.8 -0.5 c 1.3 0 2.3 0.5 3 1.5 c 0.7 1 1 2.5 1 4.5 C 66 33.5 65.7 34.9 65 35.9" stroke-linecap="round" />
</g>
		<g transform="matrix(4.64 0 0 4.64 36.23 -151.84)"  >
<path style="stroke: none; stroke-width: 1; stroke-dasharray: none; stroke-linecap: butt; stroke-dashoffset: 0; stroke-linejoin: miter; stroke-miterlimit: 4; fill: rgb(0,0,0); fill-rule: nonzero; opacity: 1;"  transform=" translate(-84.4, -31.5)" d="M 84.4 23.1 c 2.2 0 3.8 0.7 5 2.2 c 1.2 1.5 1.8 3.5 1.8 6.2 c 0 2.7 -0.6 4.7 -1.8 6.2 c -1.2 1.5 -2.9 2.2 -5 2.2 c -2.2 0 -3.8 -0.7 -5 -2.2 c -1.2 -1.5 -1.8 -3.5 -1.8 -6.2 c 0 -2.6 0.6 -4.7 1.8 -6.2 C 80.6 23.8 82.2 23.1 84.4 23.1 M 84.4 25.6 c -1.3 0 -2.2 0.5 -2.9 1.5 c -0.7 1 -1 2.4 -1 4.4 c 0 1.9 0.3 3.4 1 4.4 c 0.7 1 1.6 1.5 2.9 1.5 c 1.2 0 2.2 -0.5 2.9 -1.5 c 0.7 -1 1 -2.5 1 -4.4 c 0 -1.9 -0.3 -3.4 -1 -4.4 C 86.6 26.1 85.7 25.6 84.4 25.6" stroke-linecap="round" />
</g>
		<g transform="matrix(4.64 0 0 4.64 102.35 -152.08)"  >
<polygon style="stroke: none; stroke-width: 1; stroke-dasharray: none; stroke-linecap: butt; stroke-dashoffset: 0; stroke-linejoin: miter; stroke-miterlimit: 4; fill: rgb(0,0,0); fill-rule: nonzero; opacity: 1;"  points="-6.45,-8.35 -3.15,-8.35 -0.05,-2.85 3.05,-8.35 6.25,-8.35 1.55,-0.45 6.85,8.35 3.45,8.35 -0.15,1.85 -3.65,8.35 -6.85,8.35 -1.65,-0.45 " />
</g>
		<g transform="matrix(4.64 0 0 4.64 182.15 -183.84)"  >
<path style="stroke: none; stroke-width: 1; stroke-dasharray: none; stroke-linecap: butt; stroke-dashoffset: 0; stroke-linejoin: miter; stroke-miterlimit: 4; fill: rgb(147,199,63); fill-rule: nonzero; opacity: 1;"  transform=" translate(-115.85, -24.6)" d="M 115.2 28.7 l -5 -3.7 c -0.1 -0.1 -0.2 -0.2 -0.2 -0.4 c 0 -0.1 0.1 -0.3 0.2 -0.4 c 0 0 5 -3.7 5 -3.7 c 0.4 -0.3 1 -0.3 1.4 0 c 0 0 4.9 3.7 4.9 3.7 c 0.1 0.1 0.2 0.2 0.2 0.4 c 0 0.1 -0.1 0.3 -0.2 0.4 l -4.9 3.7 C 116.2 29 115.5 29 115.2 28.7" stroke-linecap="round" />
</g>
		<g transform="matrix(4.64 0 0 4.64 182.15 -128.16)"  >
<path style="stroke: none; stroke-width: 1; stroke-dasharray: none; stroke-linecap: butt; stroke-dashoffset: 0; stroke-linejoin: miter; stroke-miterlimit: 4; fill: rgb(88,200,229); fill-rule: nonzero; opacity: 1;"  transform=" translate(-115.85, -36.6)" d="M 115.2 40.7 l -5 -3.7 c -0.1 -0.1 -0.2 -0.2 -0.2 -0.4 c 0 -0.1 0.1 -0.3 0.2 -0.4 c 0 0 5 -3.7 5 -3.7 c 0.4 -0.3 1 -0.3 1.4 0 c 0 0 4.9 3.7 4.9 3.7 c 0.1 0.1 0.2 0.2 0.2 0.4 c 0 0.1 -0.1 0.3 -0.2 0.4 l -4.9 3.7 C 116.2 41 115.5 41 115.2 40.7" stroke-linecap="round" />
</g>
		<g transform="matrix(4.64 0 0 4.64 219.74 -211.68)"  >
<path style="stroke: none; stroke-width: 1; stroke-dasharray: none; stroke-linecap: butt; stroke-dashoffset: 0; stroke-linejoin: miter; stroke-miterlimit: 4; fill: rgb(234,230,23); fill-rule: nonzero; opacity: 1;"  transform=" translate(-123.95, -18.6)" d="M 123.2 22.7 l -4.9 -3.7 c -0.2 -0.1 -0.2 -0.2 -0.2 -0.4 c 0 -0.1 0.1 -0.3 0.2 -0.4 c 0 0 4.9 -3.7 4.9 -3.7 c 0.4 -0.3 1 -0.3 1.4 0 l 5 3.7 c 0.1 0.1 0.2 0.2 0.2 0.4 c 0 0.1 -0.1 0.3 -0.2 0.4 l -5 3.7 C 124.2 23 123.5 23 123.2 22.7" stroke-linecap="round" />
</g>
		<g transform="matrix(4.64 0 0 4.64 219.74 -155.74)"  >
<path style="stroke: none; stroke-width: 1; stroke-dasharray: none; stroke-linecap: butt; stroke-dashoffset: 0; stroke-linejoin: miter; stroke-miterlimit: 4; fill: rgb(79,191,174); fill-rule: nonzero; opacity: 1;"  transform=" translate(-123.95, -30.66)" d="M 123.2 34.8 l -4.9 -3.7 c -0.2 -0.1 -0.2 -0.2 -0.2 -0.4 c 0 -0.1 0.1 -0.3 0.2 -0.4 c 0 0 4.9 -3.7 4.9 -3.7 c 0.4 -0.3 1 -0.3 1.4 0 l 5 3.7 c 0.1 0.1 0.2 0.2 0.2 0.4 c 0 0.1 -0.1 0.3 -0.2 0.4 l -5 3.7 C 124.2 35 123.5 35 123.2 34.8" stroke-linecap="round" />
</g>
		<g transform="matrix(4.64 0 0 4.64 219.74 -98.92)"  >
<path style="stroke: none; stroke-width: 1; stroke-dasharray: none; stroke-linecap: butt; stroke-dashoffset: 0; stroke-linejoin: miter; stroke-miterlimit: 4; fill: rgb(0,118,186); fill-rule: nonzero; opacity: 1;"  transform=" translate(-123.95, -42.9)" d="M 123.2 47 l -4.9 -3.7 c -0.2 -0.1 -0.2 -0.2 -0.2 -0.4 c 0 -0.1 0.1 -0.3 0.2 -0.4 c 0 0 4.9 -3.7 4.9 -3.7 c 0.4 -0.3 1 -0.3 1.4 0 l 5 3.7 c 0.1 0.1 0.2 0.2 0.2 0.4 c 0 0.1 -0.1 0.3 -0.2 0.4 l -5 3.7 C 124.2 47.3 123.5 47.3 123.2 47" stroke-linecap="round" />
</g>
		<g transform="matrix(4.64 0 0 4.64 256.39 -183.84)"  >
<path style="stroke: none; stroke-width: 1; stroke-dasharray: none; stroke-linecap: butt; stroke-dashoffset: 0; stroke-linejoin: miter; stroke-miterlimit: 4; fill: rgb(120,187,67); fill-rule: nonzero; opacity: 1;"  transform=" translate(-131.85, -24.6)" d="M 131.2 28.7 l -5 -3.7 c -0.1 -0.1 -0.2 -0.2 -0.2 -0.4 c 0 -0.1 0.1 -0.3 0.2 -0.4 c 0 0 5 -3.7 5 -3.7 c 0.4 -0.3 1 -0.3 1.4 0 c 0 0 4.9 3.7 4.9 3.7 c 0.1 0.1 0.2 0.2 0.2 0.4 c 0 0.1 -0.1 0.3 -0.2 0.4 l -4.9 3.7 C 132.2 29 131.6 29 131.2 28.7" stroke-linecap="round" />
</g>
		<g transform="matrix(4.64 0 0 4.64 256.39 -128.16)"  >
<path style="stroke: none; stroke-width: 1; stroke-dasharray: none; stroke-linecap: butt; stroke-dashoffset: 0; stroke-linejoin: miter; stroke-miterlimit: 4; fill: rgb(11,157,217); fill-rule: nonzero; opacity: 1;"  transform=" translate(-131.85, -36.6)" d="M 131.2 40.7 l -5 -3.7 c -0.1 -0.1 -0.2 -0.2 -0.2 -0.4 c 0 -0.1 0.1 -0.3 0.2 -0.4 c 0 0 5 -3.7 5 -3.7 c 0.4 -0.3 1 -0.3 1.4 0 c 0 0 4.9 3.7 4.9 3.7 c 0.1 0.1 0.2 0.2 0.2 0.4 c 0 0.1 -0.1 0.3 -0.2 0.4 l -4.9 3.7 C 132.2 41 131.6 41 131.2 40.7" stroke-linecap="round" />
</g>
		<g transform="matrix(4.64 0 0 4.64 293.75 -155.61)"  >
<path style="stroke: none; stroke-width: 1; stroke-dasharray: none; stroke-linecap: butt; stroke-dashoffset: 0; stroke-linejoin: miter; stroke-miterlimit: 4; fill: rgb(0,0,0); fill-rule: nonzero; opacity: 1;"  transform=" translate(-139.9, -30.7)" d="M 142 30.7 c 0 1.2 -0.9 2.1 -2.1 2.1 c -1.2 0 -2.1 -0.9 -2.1 -2.1 c 0 -1.2 0.9 -2.1 2.1 -2.1 C 141.1 28.5 142 29.5 142 30.7 M 138.1 30.7 c 0 1 0.8 1.8 1.8 1.8 c 1 0 1.8 -0.8 1.8 -1.8 c 0 -1 -0.8 -1.8 -1.8 -1.8 C 138.8 28.8 138.1 29.6 138.1 30.7 M 139.4 31.9 h -0.3 v -2.5 h 0.9 c 0.6 0 0.8 0.2 0.8 0.7 c 0 0.4 -0.3 0.6 -0.6 0.7 l 0.7 1.1 h -0.4 l -0.7 -1.1 h -0.5 V 31.9 z M 139.8 30.5 c 0.4 0 0.7 0 0.7 -0.4 c 0 -0.3 -0.3 -0.4 -0.6 -0.4 h -0.6 v 0.9 H 139.8 z" stroke-linecap="round" />
</g>
</g>
</g>
</svg>